<?xml version="1.0" standalone="no"?>
<!DOCTYPE svg PUBLIC "-//W3C//DTD SVG 20010904//EN"
 "http://www.w3.org/TR/2001/REC-SVG-20010904/DTD/svg10.dtd">
<svg version="1.0" xmlns="http://www.w3.org/2000/svg"
 width="771.000000pt" height="1280.000000pt" viewBox="0 0 771.000000 1280.000000"
 preserveAspectRatio="xMidYMid meet">
<metadata>
Created by potrace 1.15, written by Peter Selinger 2001-2017
</metadata>
<g transform="translate(0.000000,1280.000000) scale(0.100000,-0.100000)"
fill="#000000" stroke="none">
<path d="M6347 12758 c-52 -90 -128 -251 -216 -458 -110 -260 -163 -366 -182
-363 -8 1 -54 9 -104 19 l-89 17 -54 -59 c-176 -193 -371 -479 -567 -831 -58
-103 -105 -190 -105 -193 0 -3 13 -11 29 -18 29 -13 91 -96 91 -122 0 -24 -78
-168 -158 -292 -114 -178 -143 -229 -315 -573 -224 -446 -278 -528 -424 -645
-227 -183 -405 -273 -868 -436 -115 -41 -264 -96 -330 -122 -594 -231 -895
-568 -1153 -1288 -28 -76 -106 -317 -175 -534 -69 -217 -158 -496 -197 -620
-169 -534 -481 -1475 -640 -1930 -120 -343 -652 -1774 -817 -2198 l-75 -194 6
-78 c38 -434 326 -907 756 -1241 439 -341 805 -508 1265 -576 101 -15 189 -18
565 -18 258 1 514 6 610 13 724 55 1213 160 1601 344 l125 59 23 97 c75 314
194 644 461 1276 167 398 247 599 340 862 162 457 206 578 395 1079 106 281
225 600 264 710 126 349 186 513 296 800 243 634 322 864 394 1145 70 273 85
385 85 635 0 191 -3 234 -22 325 -44 202 -113 386 -224 591 -78 147 -149 255
-353 539 -181 253 -233 346 -242 433 -7 66 2 96 77 257 35 76 114 292 200 550
78 234 144 427 146 429 7 7 250 -20 302 -33 51 -14 53 -14 62 7 62 146 227
569 258 662 23 66 53 174 67 239 l26 119 -82 83 -82 82 73 133 c93 168 171
284 255 379 l67 75 -6 64 c-15 165 -149 333 -413 518 -147 102 -379 202 -627
267 -87 24 -251 56 -281 56 -7 0 -24 -19 -38 -42z m1061 -1673 c-6 -6 -187 11
-194 18 -2 2 11 31 29 65 l32 62 70 -70 c38 -38 66 -72 63 -75z m-129 -61 c28
-4 51 -10 51 -14 0 -4 -22 -94 -49 -201 -72 -282 -107 -373 -199 -515 l-46
-72 -61 5 c-84 6 -339 34 -342 37 -8 8 125 202 276 404 93 125 190 260 216
301 43 67 50 73 75 68 15 -3 50 -9 79 -13z m-1836 -29 c-3 -9 -8 -14 -10 -11
-3 3 -2 9 2 15 9 16 15 13 8 -4z m-158 -155 c33 -33 57 -60 54 -60 -2 0 -31
27 -64 60 -33 33 -57 60 -54 60 2 0 31 -27 64 -60z m0 -151 c11 -16 1 -19 -13
-3 -7 8 -8 14 -3 14 5 0 13 -5 16 -11z m-64 -156 c-12 -20 -14 -14 -5 12 4 9
9 14 11 11 3 -2 0 -13 -6 -23z m-40 -90 c-12 -20 -14 -14 -5 12 4 9 9 14 11
11 3 -2 0 -13 -6 -23z m-20 -50 c-12 -20 -14 -14 -5 12 4 9 9 14 11 11 3 -2 0
-13 -6 -23z m234 -374 c214 -169 265 -186 605 -209 161 -11 317 -31 353 -45
41 -17 119 96 193 279 47 117 55 131 78 134 18 2 24 -1 21 -10 -2 -7 -29 -92
-59 -188 -30 -96 -109 -330 -174 -521 -138 -399 -153 -458 -153 -589 1 -183
64 -338 226 -550 263 -347 304 -402 359 -489 104 -166 180 -359 206 -523 16
-96 8 -341 -15 -488 -59 -385 -173 -757 -504 -1652 -82 -222 -204 -554 -271
-738 -446 -1221 -699 -1891 -940 -2496 -279 -696 -430 -1099 -499 -1324 -13
-41 -27 -79 -31 -83 -4 -4 -29 18 -56 50 -113 135 -219 249 -402 434 l-194
196 25 50 c68 133 121 322 202 723 111 552 146 660 437 1370 351 856 558 1318
1031 2296 237 491 378 818 457 1058 32 95 32 102 21 164 -38 207 -171 408
-376 567 -110 86 -214 150 -396 240 -159 80 -202 100 -1017 460 -271 120 -491
220 -489 221 2 2 75 -28 163 -65 103 -45 160 -65 163 -58 3 10 74 109 109 152
4 6 18 26 32 45 13 19 27 37 30 40 3 3 17 21 30 40 13 19 27 37 30 40 3 3 17
21 30 40 14 19 30 42 37 50 6 8 41 56 77 105 36 50 69 95 73 100 5 6 19 26 33
45 13 19 27 37 30 40 3 3 17 21 30 40 13 19 27 37 30 40 3 3 17 21 30 40 14
19 28 40 33 45 4 6 37 51 73 100 36 50 71 97 77 105 7 8 23 31 37 50 13 19 27
37 30 40 3 3 17 21 30 40 13 19 27 37 30 40 3 3 17 21 30 40 14 19 28 40 33
45 4 6 37 51 73 100 36 50 71 97 77 105 7 8 23 31 37 50 13 19 30 41 37 48 20
20 17 24 -46 65 -77 50 -231 180 -306 258 -44 47 -37 41 30 -22 50 -46 122
-109 160 -140z m-524 -66 c-12 -20 -14 -14 -5 12 4 9 9 14 11 11 3 -2 0 -13
-6 -23z m-30 -70 c-12 -20 -14 -14 -5 12 4 9 9 14 11 11 3 -2 0 -13 -6 -23z
m-136 -283 c-9 -16 -18 -30 -21 -30 -2 0 2 14 11 30 9 17 18 30 21 30 2 0 -2
-13 -11 -30z m-41 -72 c-21 -36 -85 -128 -89 -128 -3 0 16 32 41 70 26 39 49
70 51 70 2 0 1 -6 -3 -12z m-94 -142 c0 -2 -8 -10 -17 -17 -16 -13 -17 -12 -4
4 13 16 21 21 21 13z m-30 -39 c0 -2 -15 -16 -32 -33 l-33 -29 29 33 c28 30
36 37 36 29z m-80 -90 c0 -2 -10 -12 -22 -23 l-23 -19 19 23 c18 21 26 27 26
19z m-70 -60 c0 -2 -15 -16 -32 -33 l-33 -29 29 33 c28 30 36 37 36 29z m-70
-61 c0 -2 -8 -10 -17 -17 -16 -13 -17 -12 -4 4 13 16 21 21 21 13z m-40 -30
c0 -2 -8 -10 -17 -17 -16 -13 -17 -12 -4 4 13 16 21 21 21 13z m-475 -646 c3
-6 -1 -7 -9 -4 -18 7 -21 14 -7 14 6 0 13 -4 16 -10z m105 -45 c14 -8 21 -14
15 -14 -5 0 -21 6 -35 14 -14 8 -20 14 -15 14 6 0 21 -6 35 -14z m90 -40 c14
-8 21 -14 15 -14 -5 0 -21 6 -35 14 -14 8 -20 14 -15 14 6 0 21 -6 35 -14z
m-579 -342 c-12 -20 -14 -14 -5 12 4 9 9 14 11 11 3 -2 0 -13 -6 -23z m-20
-50 c-12 -20 -14 -14 -5 12 4 9 9 14 11 11 3 -2 0 -13 -6 -23z m-80 -190 c-12
-20 -14 -14 -5 12 4 9 9 14 11 11 3 -2 0 -13 -6 -23z m-40 -90 c-12 -20 -14
-14 -5 12 4 9 9 14 11 11 3 -2 0 -13 -6 -23z m-50 -110 c-11 -21 -20 -35 -21
-31 0 12 33 78 38 74 2 -2 -6 -21 -17 -43z m-60 -130 c-11 -21 -20 -35 -21
-31 0 12 33 78 38 74 2 -2 -6 -21 -17 -43z m-70 -149 c-16 -33 -30 -56 -31
-52 0 11 53 118 58 114 2 -2 -10 -30 -27 -62z m-60 -130 c-16 -33 -30 -56 -31
-52 0 11 53 118 58 114 2 -2 -10 -30 -27 -62z m-55 -121 c-14 -26 -25 -45 -26
-41 0 12 43 98 48 94 2 -2 -8 -26 -22 -53z m-50 -110 c-8 -15 -15 -25 -16 -21
0 12 23 58 27 54 3 -2 -2 -17 -11 -33z m-30 -70 c-8 -15 -15 -25 -16 -21 0 12
23 58 27 54 3 -2 -2 -17 -11 -33z m-30 -70 c-8 -15 -15 -25 -16 -21 0 12 23
58 27 54 3 -2 -2 -17 -11 -33z m-60 -144 c-23 -57 -71 -182 -106 -276 -35 -95
-65 -171 -68 -169 -4 5 120 340 176 474 19 46 36 81 38 79 2 -1 -16 -50 -40
-108z m-290 -780 c-282 -772 -353 -953 -583 -1494 -187 -437 -361 -818 -631
-1380 -108 -227 -429 -874 -437 -883 -1 -1 -49 -11 -106 -21 -144 -27 -319
-74 -472 -125 -102 -35 -127 -41 -122 -28 4 10 61 161 127 337 182 489 297
787 448 1165 76 190 175 452 221 583 45 130 84 236 86 234 3 -3 -51 -164 -126
-377 -16 -47 -75 -202 -131 -345 -114 -290 -117 -298 -99 -270 7 11 15 22 19
25 3 3 17 21 30 40 13 19 27 37 30 40 3 3 17 21 30 40 13 19 27 37 30 40 3 3
17 21 30 40 14 19 30 42 37 50 6 8 41 56 77 105 36 50 69 95 73 100 5 6 19 26
33 45 13 19 27 37 30 40 3 3 17 21 30 40 13 19 27 37 30 40 3 3 17 21 30 40
14 19 28 40 33 45 4 6 37 51 73 100 36 50 71 97 77 105 7 8 23 31 37 50 13 19
27 37 30 40 3 3 17 21 30 40 13 19 27 37 30 40 3 3 17 21 30 40 14 19 28 40
33 45 4 6 37 51 73 100 36 50 71 97 77 105 7 8 23 31 37 50 13 19 27 37 30 40
3 3 17 21 30 40 14 19 30 42 37 50 7 8 53 71 103 140 50 69 96 132 103 140 7
8 23 31 37 50 13 19 27 37 30 40 3 3 17 21 30 40 14 19 30 42 37 50 6 8 47 63
91 122 43 60 81 106 84 103 2 -3 21 41 42 98 21 56 59 161 86 232 26 72 64
176 85 233 21 57 39 101 41 99 3 -2 -47 -145 -110 -318z m-1159 -641 c-3 -8
-6 -5 -6 6 -1 11 2 17 5 13 3 -3 4 -12 1 -19z m-40 -130 c-3 -8 -6 -5 -6 6 -1
11 2 17 5 13 3 -3 4 -12 1 -19z m-40 -130 c-3 -8 -6 -5 -6 6 -1 11 2 17 5 13
3 -3 4 -12 1 -19z m-16 -49 c-5 -13 -10 -19 -10 -12 -1 15 10 45 15 40 3 -2 0
-15 -5 -28z m-32 -108 c-7 -23 -14 -39 -16 -37 -3 2 1 23 8 45 7 23 14 39 16
37 3 -2 -1 -23 -8 -45z m-40 -130 c-7 -23 -14 -39 -16 -37 -3 2 1 23 8 45 7
23 14 39 16 37 3 -2 -1 -23 -8 -45z m-28 -82 c-5 -13 -10 -19 -10 -12 -1 15
10 45 15 40 3 -2 0 -15 -5 -28z m-72 -228 c-18 -55 -35 -99 -37 -96 -2 2 11
49 29 104 18 55 35 99 37 96 2 -2 -11 -49 -29 -104z m-56 -2348 c-13 -2 -33
-2 -45 0 -13 2 -3 4 22 4 25 0 35 -2 23 -4z m-256 -19 c-3 -3 -12 -4 -19 -1
-8 3 -5 6 6 6 11 1 17 -2 13 -5z m-360 -60 c-3 -3 -12 -4 -19 -1 -8 3 -5 6 6
6 11 1 17 -2 13 -5z m-40 -10 c-3 -3 -12 -4 -19 -1 -8 3 -5 6 6 6 11 1 17 -2
13 -5z m-50 -10 c-3 -3 -12 -4 -19 -1 -8 3 -5 6 6 6 11 1 17 -2 13 -5z m-170
-96 c-3 -8 -6 -5 -6 6 -1 11 2 17 5 13 3 -3 4 -12 1 -19z m10 -50 c-3 -8 -6
-5 -6 6 -1 11 2 17 5 13 3 -3 4 -12 1 -19z m10 -50 c-3 -7 -5 -2 -5 12 0 14 2
19 5 13 2 -7 2 -19 0 -25z m10 -40 c-3 -8 -6 -5 -6 6 -1 11 2 17 5 13 3 -3 4
-12 1 -19z m10 -40 c-3 -8 -6 -5 -6 6 -1 11 2 17 5 13 3 -3 4 -12 1 -19z m21
-73 c0 -16 -2 -15 -8 5 -11 34 -11 60 0 35 5 -11 8 -29 8 -40z m131 -350 c45
-91 105 -183 151 -235 17 -19 29 -29 25 -22 -3 6 1 19 9 28 15 14 17 13 23
-16 l6 -33 18 24 c13 17 19 19 19 9 0 -8 5 -22 10 -30 8 -12 15 -9 39 19 l28
33 8 -38 c4 -22 10 -33 12 -26 7 19 31 14 38 -9 5 -15 10 -18 18 -10 17 17 27
13 27 -8 0 -11 5 -23 10 -26 6 -3 10 -3 10 2 0 10 45 63 54 63 3 0 6 -11 6
-25 0 -29 15 -33 29 -7 8 13 10 14 11 2 0 -8 4 -21 9 -29 8 -12 12 -12 24 -2
13 10 16 7 22 -19 6 -26 25 -44 25 -22 0 4 11 20 25 36 l25 29 6 -32 c7 -36
12 -38 29 -14 11 15 13 13 20 -16 6 -30 8 -31 20 -14 12 17 14 16 26 -10 l13
-28 23 27 c13 15 23 32 23 38 1 6 8 -2 17 -18 15 -28 16 -29 29 -12 12 17 14
16 20 -10 10 -43 16 -49 29 -31 11 15 13 14 24 -11 12 -25 13 -26 26 -8 13 17
14 15 21 -19 l7 -38 18 24 c17 22 19 23 19 4 0 -11 4 -26 9 -34 7 -11 14 -6
32 22 13 20 27 37 30 37 4 0 9 -14 13 -32 6 -30 7 -31 20 -12 14 18 15 17 30
-16 12 -28 16 -32 21 -17 10 25 25 21 25 -7 0 -31 16 -42 25 -18 6 14 9 13 22
-12 14 -27 17 -28 28 -13 14 19 25 12 25 -15 0 -20 11 -23 27 -7 8 8 13 5 18
-10 7 -23 31 -28 38 -8 2 6 8 -5 12 -27 l8 -38 28 33 c24 28 31 31 39 19 5 -8
10 -21 10 -29 0 -8 7 -4 18 10 l19 22 7 -34 c4 -19 10 -28 13 -21 7 19 31 14
38 -8 7 -21 25 -28 25 -10 0 6 5 10 10 10 6 0 10 -11 10 -25 0 -29 15 -33 25
-7 5 14 9 11 21 -17 12 -28 16 -31 29 -21 13 11 16 7 22 -20 l6 -33 17 22 16
22 12 -26 c10 -21 16 -24 26 -16 15 13 26 5 26 -21 0 -22 9 -23 25 -2 10 15
13 13 19 -17 6 -31 8 -32 20 -16 12 16 14 15 26 -13 12 -29 30 -41 30 -20 0 6
5 10 10 10 6 0 10 -9 10 -19 0 -26 18 -37 26 -17 9 24 21 19 29 -11 6 -27 7
-27 21 -9 15 21 12 23 29 -31 5 -14 7 -14 20 3 11 15 14 16 15 4 0 -8 4 -21 9
-29 8 -12 12 -12 25 -2 14 12 17 9 22 -18 7 -35 18 -40 29 -13 6 15 8 14 17
-8 6 -14 14 -39 18 -57 7 -28 5 -32 -14 -36 -42 -8 242 -6 359 3 66 5 156 11
200 14 76 5 75 4 -25 -9 -150 -20 -637 -30 -786 -16 -418 38 -811 160 -1141
351 -236 137 -541 359 -527 382 5 7 2 8 -5 3 -15 -9 -51 24 -136 125 -80 96
-147 200 -195 303 -40 86 -100 250 -99 270 0 7 18 -37 39 -98 22 -60 57 -146
79 -190z m1646 65 c10 -11 16 -20 13 -20 -3 0 -13 9 -23 20 -10 11 -16 20 -13
20 3 0 13 -9 23 -20z m75 -57 c0 -7 -39 17 -46 28 -3 6 5 3 20 -6 14 -10 26
-19 26 -22z m50 -29 c0 -2 -9 0 -20 6 -11 6 -20 13 -20 16 0 2 9 0 20 -6 11
-6 20 -13 20 -16z m35 -14 c3 -6 -1 -7 -9 -4 -18 7 -21 14 -7 14 6 0 13 -4 16
-10z m45 -20 c8 -5 11 -10 5 -10 -5 0 -17 5 -25 10 -8 5 -10 10 -5 10 6 0 17
-5 25 -10z m50 -20 c8 -5 11 -10 5 -10 -5 0 -17 5 -25 10 -8 5 -10 10 -5 10 6
0 17 -5 25 -10z m183 -57 c-7 -2 -19 -2 -25 0 -7 3 -2 5 12 5 14 0 19 -2 13
-5z m44 -9 c-3 -3 -12 -4 -19 -1 -8 3 -5 6 6 6 11 1 17 -2 13 -5z m56 -11 c-7
-2 -21 -2 -30 0 -10 3 -4 5 12 5 17 0 24 -2 18 -5z m64 -9 c-3 -3 -12 -4 -19
-1 -8 3 -5 6 6 6 11 1 17 -2 13 -5z m56 -11 c-7 -2 -19 -2 -25 0 -7 3 -2 5 12
5 14 0 19 -2 13 -5z m105 -10 c-10 -2 -26 -2 -35 0 -10 3 -2 5 17 5 19 0 27
-2 18 -5z m75 -10 c-7 -2 -21 -2 -30 0 -10 3 -4 5 12 5 17 0 24 -2 18 -5z
m125 -10 c-10 -2 -26 -2 -35 0 -10 3 -2 5 17 5 19 0 27 -2 18 -5z m210 -20
c-10 -2 -26 -2 -35 0 -10 3 -2 5 17 5 19 0 27 -2 18 -5z m335 -20 c-13 -2 -35
-2 -50 0 -16 2 -5 4 22 4 28 0 40 -2 28 -4z m164 1 c-3 -3 -12 -4 -19 -1 -8 3
-5 6 6 6 11 1 17 -2 13 -5z m160 -780 c-3 -3 -12 -4 -19 -1 -8 3 -5 6 6 6 11
1 17 -2 13 -5z m-50 -10 c-3 -3 -12 -4 -19 -1 -8 3 -5 6 6 6 11 1 17 -2 13 -5z
m-60 -10 c-3 -3 -12 -4 -19 -1 -8 3 -5 6 6 6 11 1 17 -2 13 -5z m-54 -11 c-7
-2 -19 -2 -25 0 -7 3 -2 5 12 5 14 0 19 -2 13 -5z m-50 -10 c-7 -2 -21 -2 -30
0 -10 3 -4 5 12 5 17 0 24 -2 18 -5z m-66 -9 c-3 -3 -12 -4 -19 -1 -8 3 -5 6
6 6 11 1 17 -2 13 -5z m-54 -11 c-7 -2 -21 -2 -30 0 -10 3 -4 5 12 5 17 0 24
-2 18 -5z m-70 -10 c-7 -2 -21 -2 -30 0 -10 3 -4 5 12 5 17 0 24 -2 18 -5z
m-65 -10 c-10 -2 -28 -2 -40 0 -13 2 -5 4 17 4 22 1 32 -1 23 -4z m-80 -10
c-10 -2 -26 -2 -35 0 -10 3 -2 5 17 5 19 0 27 -2 18 -5z m-628 -13 c0 -5 -5
-10 -11 -10 -5 0 -7 5 -4 10 3 6 8 10 11 10 2 0 4 -4 4 -10z"/>
<path d="M5580 9876 c0 -3 14 -12 30 -21 17 -9 30 -13 30 -11 0 3 -13 12 -30
21 -16 9 -30 13 -30 11z"/>
<path d="M4380 8210 c8 -5 20 -10 25 -10 6 0 3 5 -5 10 -8 5 -19 10 -25 10 -5
0 -3 -5 5 -10z"/>
<path d="M2366 5515 c-9 -26 -7 -32 5 -12 6 10 9 21 6 23 -2 3 -7 -2 -11 -11z"/>
<path d="M2331 5419 c-6 -18 -9 -34 -7 -36 2 -2 9 10 15 28 6 18 9 34 7 36 -2
2 -9 -10 -15 -28z"/>
<path d="M2262 5238 c-10 -30 -10 -31 3 -14 13 17 21 46 12 46 -1 0 -8 -15
-15 -32z"/>
<path d="M662 3205 c-17 -37 -14 -45 4 -12 9 16 14 31 11 33 -2 2 -9 -7 -15
-21z"/>
<path d="M622 3105 c-17 -37 -14 -45 4 -12 9 16 14 31 11 33 -2 2 -9 -7 -15
-21z"/>
<path d="M566 2965 c-9 -26 -7 -32 5 -12 6 10 9 21 6 23 -2 3 -7 -2 -11 -11z"/>
<path d="M540 967 c0 -2 15 -16 33 -33 l32 -29 -29 33 c-28 30 -36 37 -36 29z"/>
<path d="M2458 103 c23 -2 59 -2 80 0 20 2 1 4 -43 4 -44 0 -61 -2 -37 -4z"/>
</g>
</svg>
